<?xml version="1.0" encoding="utf-8"?>
<svg xmlns="http://www.w3.org/2000/svg" xmlns:xlink="http://www.w3.org/1999/xlink" width="600" height="400" viewBox="0 0 2400 1600">
<defs>
  <clipPath id="clip000">
    <rect x="0" y="0" width="2400" height="1600"/>
  </clipPath>
</defs>
<path clip-path="url(#clip000)" d="M0 1600 L2400 1600 L2400 0 L0 0  Z" fill="#ffffff" fill-rule="evenodd" fill-opacity="1"/>
<defs>
  <clipPath id="clip001">
    <rect x="245" y="123" width="2108" height="1288"/>
  </clipPath>
</defs>
<path clip-path="url(#clip000)" d="M245.555 1410.9 L2352.76 1410.9 L2352.76 123.472 L245.555 123.472  Z" fill="#ffffff" fill-rule="evenodd" fill-opacity="1"/>
<polyline clip-path="url(#clip001)" style="stroke:#000000; stroke-linecap:round; stroke-linejoin:round; stroke-width:2; stroke-opacity:0.1; fill:none" points="967.834,1410.9 967.834,123.472 "/>
<polyline clip-path="url(#clip001)" style="stroke:#000000; stroke-linecap:round; stroke-linejoin:round; stroke-width:2; stroke-opacity:0.1; fill:none" points="1851.36,1410.9 1851.36,123.472 "/>
<polyline clip-path="url(#clip001)" style="stroke:#000000; stroke-linecap:round; stroke-linejoin:round; stroke-width:2; stroke-opacity:0.1; fill:none" points="245.555,1222.01 2352.76,1222.01 "/>
<polyline clip-path="url(#clip001)" style="stroke:#000000; stroke-linecap:round; stroke-linejoin:round; stroke-width:2; stroke-opacity:0.1; fill:none" points="245.555,642.681 2352.76,642.681 "/>
<polyline clip-path="url(#clip000)" style="stroke:#000000; stroke-linecap:round; stroke-linejoin:round; stroke-width:4; stroke-opacity:1; fill:none" points="245.555,1410.9 2352.76,1410.9 "/>
<polyline clip-path="url(#clip000)" style="stroke:#000000; stroke-linecap:round; stroke-linejoin:round; stroke-width:4; stroke-opacity:1; fill:none" points="967.834,1410.9 967.834,1392 "/>
<polyline clip-path="url(#clip000)" style="stroke:#000000; stroke-linecap:round; stroke-linejoin:round; stroke-width:4; stroke-opacity:1; fill:none" points="1851.36,1410.9 1851.36,1392 "/>
<path clip-path="url(#clip000)" d="M952.256 1485.02 L968.575 1485.02 L968.575 1488.96 L946.631 1488.96 L946.631 1485.02 Q949.293 1482.27 953.876 1477.64 Q958.483 1472.98 959.663 1471.64 Q961.909 1469.12 962.788 1467.38 Q963.691 1465.62 963.691 1463.93 Q963.691 1461.18 961.746 1459.44 Q959.825 1457.71 956.723 1457.71 Q954.524 1457.71 952.071 1458.47 Q949.64 1459.23 946.862 1460.79 L946.862 1456.06 Q949.686 1454.93 952.14 1454.35 Q954.594 1453.77 956.631 1453.77 Q962.001 1453.77 965.196 1456.46 Q968.39 1459.14 968.39 1463.63 Q968.39 1465.76 967.58 1467.68 Q966.793 1469.58 964.686 1472.17 Q964.108 1472.85 961.006 1476.06 Q957.904 1479.26 952.256 1485.02 Z" fill="#000000" fill-rule="nonzero" fill-opacity="1" /><path clip-path="url(#clip000)" d="M981.252 1436.78 L971.66 1451.77 L981.252 1451.77 L981.252 1436.78 M980.255 1433.47 L985.032 1433.47 L985.032 1451.77 L989.038 1451.77 L989.038 1454.93 L985.032 1454.93 L985.032 1461.55 L981.252 1461.55 L981.252 1454.93 L968.575 1454.93 L968.575 1451.26 L980.255 1433.47 Z" fill="#000000" fill-rule="nonzero" fill-opacity="1" /><path clip-path="url(#clip000)" d="M1836.38 1485.02 L1852.7 1485.02 L1852.7 1488.96 L1830.76 1488.96 L1830.76 1485.02 Q1833.42 1482.27 1838 1477.64 Q1842.61 1472.98 1843.79 1471.64 Q1846.03 1469.12 1846.91 1467.38 Q1847.82 1465.62 1847.82 1463.93 Q1847.82 1461.18 1845.87 1459.44 Q1843.95 1457.71 1840.85 1457.71 Q1838.65 1457.71 1836.19 1458.47 Q1833.76 1459.23 1830.99 1460.79 L1830.99 1456.06 Q1833.81 1454.93 1836.26 1454.35 Q1838.72 1453.77 1840.76 1453.77 Q1846.13 1453.77 1849.32 1456.46 Q1852.51 1459.14 1852.51 1463.63 Q1852.51 1465.76 1851.7 1467.68 Q1850.92 1469.58 1848.81 1472.17 Q1848.23 1472.85 1845.13 1476.06 Q1842.03 1479.26 1836.38 1485.02 Z" fill="#000000" fill-rule="nonzero" fill-opacity="1" /><path clip-path="url(#clip000)" d="M1862.33 1448.21 Q1859.62 1448.21 1858.06 1449.66 Q1856.52 1451.11 1856.52 1453.65 Q1856.52 1456.19 1858.06 1457.63 Q1859.62 1459.08 1862.33 1459.08 Q1865.04 1459.08 1866.6 1457.63 Q1868.16 1456.17 1868.16 1453.65 Q1868.16 1451.11 1866.6 1449.66 Q1865.06 1448.21 1862.33 1448.21 M1858.53 1446.59 Q1856.08 1445.99 1854.71 1444.32 Q1853.36 1442.64 1853.36 1440.24 Q1853.36 1436.87 1855.75 1434.91 Q1858.15 1432.96 1862.33 1432.96 Q1866.52 1432.96 1868.91 1434.91 Q1871.3 1436.87 1871.3 1440.24 Q1871.3 1442.64 1869.93 1444.32 Q1868.57 1445.99 1866.15 1446.59 Q1868.89 1447.23 1870.42 1449.1 Q1871.96 1450.96 1871.96 1453.65 Q1871.96 1457.73 1869.46 1459.91 Q1866.97 1462.09 1862.33 1462.09 Q1857.68 1462.09 1855.18 1459.91 Q1852.7 1457.73 1852.7 1453.65 Q1852.7 1450.96 1854.24 1449.1 Q1855.78 1447.23 1858.53 1446.59 M1857.14 1440.59 Q1857.14 1442.78 1858.49 1444 Q1859.87 1445.22 1862.33 1445.22 Q1864.77 1445.22 1866.15 1444 Q1867.54 1442.78 1867.54 1440.59 Q1867.54 1438.41 1866.15 1437.19 Q1864.77 1435.97 1862.33 1435.97 Q1859.87 1435.97 1858.49 1437.19 Q1857.14 1438.41 1857.14 1440.59 Z" fill="#000000" fill-rule="nonzero" fill-opacity="1" /><path clip-path="url(#clip000)" d="M1005.76 1552.67 L1005.76 1574.19 L999.903 1574.19 L999.903 1552.86 Q999.903 1547.8 997.93 1545.29 Q995.957 1542.77 992.01 1542.77 Q987.268 1542.77 984.53 1545.79 Q981.793 1548.82 981.793 1554.04 L981.793 1574.19 L975.905 1574.19 L975.905 1538.54 L981.793 1538.54 L981.793 1544.08 Q983.894 1540.86 986.726 1539.27 Q989.591 1537.68 993.315 1537.68 Q999.458 1537.68 1002.61 1541.5 Q1005.76 1545.29 1005.76 1552.67 Z" fill="#000000" fill-rule="nonzero" fill-opacity="1" /><path clip-path="url(#clip000)" d="M1016.84 1560.12 L1016.84 1538.54 L1022.69 1538.54 L1022.69 1559.89 Q1022.69 1564.96 1024.67 1567.5 Q1026.64 1570.02 1030.59 1570.02 Q1035.33 1570.02 1038.07 1566.99 Q1040.83 1563.97 1040.83 1558.75 L1040.83 1538.54 L1046.69 1538.54 L1046.69 1574.19 L1040.83 1574.19 L1040.83 1568.71 Q1038.7 1571.96 1035.87 1573.55 Q1033.07 1575.11 1029.34 1575.11 Q1023.2 1575.11 1020.02 1571.29 Q1016.84 1567.47 1016.84 1560.12 M1031.57 1537.68 L1031.57 1537.68 Z" fill="#000000" fill-rule="nonzero" fill-opacity="1" /><path clip-path="url(#clip000)" d="M1086.51 1545.38 Q1088.71 1541.43 1091.76 1539.56 Q1094.82 1537.68 1098.95 1537.68 Q1104.52 1537.68 1107.55 1541.59 Q1110.57 1545.48 1110.57 1552.67 L1110.57 1574.19 L1104.68 1574.19 L1104.68 1552.86 Q1104.68 1547.74 1102.87 1545.25 Q1101.05 1542.77 1097.33 1542.77 Q1092.78 1542.77 1090.14 1545.79 Q1087.5 1548.82 1087.5 1554.04 L1087.5 1574.19 L1081.61 1574.19 L1081.61 1552.86 Q1081.61 1547.7 1079.79 1545.25 Q1077.98 1542.77 1074.19 1542.77 Q1069.7 1542.77 1067.06 1545.83 Q1064.42 1548.85 1064.42 1554.04 L1064.42 1574.19 L1058.53 1574.19 L1058.53 1538.54 L1064.42 1538.54 L1064.42 1544.08 Q1066.43 1540.8 1069.23 1539.24 Q1072.03 1537.68 1075.88 1537.68 Q1079.76 1537.68 1082.47 1539.65 Q1085.2 1541.62 1086.51 1545.38 Z" fill="#000000" fill-rule="nonzero" fill-opacity="1" /><path clip-path="url(#clip000)" d="M1147.84 1556.39 Q1147.84 1549.93 1145.17 1546.27 Q1142.53 1542.58 1137.88 1542.58 Q1133.23 1542.58 1130.56 1546.27 Q1127.92 1549.93 1127.92 1556.39 Q1127.92 1562.85 1130.56 1566.55 Q1133.23 1570.21 1137.88 1570.21 Q1142.53 1570.21 1145.17 1566.55 Q1147.84 1562.85 1147.84 1556.39 M1127.92 1543.95 Q1129.76 1540.77 1132.56 1539.24 Q1135.4 1537.68 1139.31 1537.68 Q1145.81 1537.68 1149.85 1542.83 Q1153.92 1547.99 1153.92 1556.39 Q1153.92 1564.8 1149.85 1569.95 Q1145.81 1575.11 1139.31 1575.11 Q1135.4 1575.11 1132.56 1573.58 Q1129.76 1572.02 1127.92 1568.84 L1127.92 1574.19 L1122.03 1574.19 L1122.03 1524.66 L1127.92 1524.66 L1127.92 1543.95 Z" fill="#000000" fill-rule="nonzero" fill-opacity="1" /><path clip-path="url(#clip000)" d="M1194.12 1554.9 L1194.12 1557.76 L1167.19 1557.76 Q1167.58 1563.81 1170.82 1566.99 Q1174.1 1570.14 1179.93 1570.14 Q1183.3 1570.14 1186.45 1569.32 Q1189.63 1568.49 1192.75 1566.83 L1192.75 1572.37 Q1189.6 1573.71 1186.29 1574.41 Q1182.98 1575.11 1179.58 1575.11 Q1171.05 1575.11 1166.05 1570.14 Q1161.08 1565.18 1161.08 1556.71 Q1161.08 1547.96 1165.79 1542.83 Q1170.54 1537.68 1178.56 1537.68 Q1185.75 1537.68 1189.92 1542.33 Q1194.12 1546.94 1194.12 1554.9 M1188.26 1553.18 Q1188.2 1548.37 1185.56 1545.51 Q1182.95 1542.64 1178.62 1542.64 Q1173.72 1542.64 1170.76 1545.41 Q1167.83 1548.18 1167.39 1553.21 L1188.26 1553.18 Z" fill="#000000" fill-rule="nonzero" fill-opacity="1" /><path clip-path="url(#clip000)" d="M1224.39 1544.01 Q1223.4 1543.44 1222.23 1543.18 Q1221.08 1542.9 1219.68 1542.9 Q1214.71 1542.9 1212.04 1546.14 Q1209.4 1549.36 1209.4 1555.41 L1209.4 1574.19 L1203.51 1574.19 L1203.51 1538.54 L1209.4 1538.54 L1209.4 1544.08 Q1211.24 1540.83 1214.2 1539.27 Q1217.17 1537.68 1221.4 1537.68 Q1222 1537.68 1222.74 1537.77 Q1223.47 1537.84 1224.36 1538 L1224.39 1544.01 Z" fill="#000000" fill-rule="nonzero" fill-opacity="1" /><path clip-path="url(#clip000)" d="M1265.07 1542.64 Q1260.36 1542.64 1257.62 1546.34 Q1254.88 1550 1254.88 1556.39 Q1254.88 1562.79 1257.59 1566.48 Q1260.32 1570.14 1265.07 1570.14 Q1269.75 1570.14 1272.48 1566.45 Q1275.22 1562.76 1275.22 1556.39 Q1275.22 1550.06 1272.48 1546.37 Q1269.75 1542.64 1265.07 1542.64 M1265.07 1537.68 Q1272.71 1537.68 1277.07 1542.64 Q1281.43 1547.61 1281.43 1556.39 Q1281.43 1565.15 1277.07 1570.14 Q1272.71 1575.11 1265.07 1575.11 Q1257.4 1575.11 1253.04 1570.14 Q1248.71 1565.15 1248.71 1556.39 Q1248.71 1547.61 1253.04 1542.64 Q1257.4 1537.68 1265.07 1537.68 Z" fill="#000000" fill-rule="nonzero" fill-opacity="1" /><path clip-path="url(#clip000)" d="M1309.18 1524.66 L1309.18 1529.53 L1303.58 1529.53 Q1300.43 1529.53 1299.19 1530.8 Q1297.98 1532.08 1297.98 1535.39 L1297.98 1538.54 L1307.62 1538.54 L1307.62 1543.09 L1297.98 1543.09 L1297.98 1574.19 L1292.09 1574.19 L1292.09 1543.09 L1286.49 1543.09 L1286.49 1538.54 L1292.09 1538.54 L1292.09 1536.05 Q1292.09 1530.1 1294.86 1527.4 Q1297.63 1524.66 1303.64 1524.66 L1309.18 1524.66 Z" fill="#000000" fill-rule="nonzero" fill-opacity="1" /><path clip-path="url(#clip000)" d="M1330.6 1538.54 L1336.81 1538.54 L1347.95 1568.46 L1359.09 1538.54 L1365.3 1538.54 L1351.93 1574.19 L1343.97 1574.19 L1330.6 1538.54 Z" fill="#000000" fill-rule="nonzero" fill-opacity="1" /><path clip-path="url(#clip000)" d="M1389.58 1556.27 Q1382.48 1556.27 1379.75 1557.89 Q1377.01 1559.51 1377.01 1563.43 Q1377.01 1566.55 1379.04 1568.39 Q1381.11 1570.21 1384.65 1570.21 Q1389.52 1570.21 1392.44 1566.77 Q1395.4 1563.3 1395.4 1557.57 L1395.4 1556.27 L1389.58 1556.27 M1401.26 1553.85 L1401.26 1574.19 L1395.4 1574.19 L1395.4 1568.77 Q1393.4 1572.02 1390.41 1573.58 Q1387.42 1575.11 1383.09 1575.11 Q1377.61 1575.11 1374.37 1572.05 Q1371.15 1568.97 1371.15 1563.81 Q1371.15 1557.79 1375.16 1554.74 Q1379.2 1551.68 1387.19 1551.68 L1395.4 1551.68 L1395.4 1551.11 Q1395.4 1547.07 1392.73 1544.87 Q1390.09 1542.64 1385.28 1542.64 Q1382.23 1542.64 1379.33 1543.38 Q1376.44 1544.11 1373.76 1545.57 L1373.76 1540.16 Q1376.98 1538.92 1380 1538.31 Q1383.02 1537.68 1385.89 1537.68 Q1393.62 1537.68 1397.44 1541.69 Q1401.26 1545.7 1401.26 1553.85 Z" fill="#000000" fill-rule="nonzero" fill-opacity="1" /><path clip-path="url(#clip000)" d="M1433.98 1544.01 Q1432.99 1543.44 1431.82 1543.18 Q1430.67 1542.9 1429.27 1542.9 Q1424.31 1542.9 1421.63 1546.14 Q1418.99 1549.36 1418.99 1555.41 L1418.99 1574.19 L1413.1 1574.19 L1413.1 1538.54 L1418.99 1538.54 L1418.99 1544.08 Q1420.84 1540.83 1423.8 1539.27 Q1426.76 1537.68 1430.99 1537.68 Q1431.59 1537.68 1432.33 1537.77 Q1433.06 1537.84 1433.95 1538 L1433.98 1544.01 Z" fill="#000000" fill-rule="nonzero" fill-opacity="1" /><path clip-path="url(#clip000)" d="M1440.12 1538.54 L1445.98 1538.54 L1445.98 1574.19 L1440.12 1574.19 L1440.12 1538.54 M1440.12 1524.66 L1445.98 1524.66 L1445.98 1532.08 L1440.12 1532.08 L1440.12 1524.66 Z" fill="#000000" fill-rule="nonzero" fill-opacity="1" /><path clip-path="url(#clip000)" d="M1474.44 1556.27 Q1467.34 1556.27 1464.6 1557.89 Q1461.86 1559.51 1461.86 1563.43 Q1461.86 1566.55 1463.9 1568.39 Q1465.97 1570.21 1469.5 1570.21 Q1474.37 1570.21 1477.3 1566.77 Q1480.26 1563.3 1480.26 1557.57 L1480.26 1556.27 L1474.44 1556.27 M1486.12 1553.85 L1486.12 1574.19 L1480.26 1574.19 L1480.26 1568.77 Q1478.25 1572.02 1475.26 1573.58 Q1472.27 1575.11 1467.94 1575.11 Q1462.47 1575.11 1459.22 1572.05 Q1456.01 1568.97 1456.01 1563.81 Q1456.01 1557.79 1460.02 1554.74 Q1464.06 1551.68 1472.05 1551.68 L1480.26 1551.68 L1480.26 1551.11 Q1480.26 1547.07 1477.59 1544.87 Q1474.94 1542.64 1470.14 1542.64 Q1467.08 1542.64 1464.19 1543.38 Q1461.29 1544.11 1458.62 1545.57 L1458.62 1540.16 Q1461.83 1538.92 1464.85 1538.31 Q1467.88 1537.68 1470.74 1537.68 Q1478.48 1537.68 1482.3 1541.69 Q1486.12 1545.7 1486.12 1553.85 Z" fill="#000000" fill-rule="nonzero" fill-opacity="1" /><path clip-path="url(#clip000)" d="M1523.77 1556.39 Q1523.77 1549.93 1521.1 1546.27 Q1518.45 1542.58 1513.81 1542.58 Q1509.16 1542.58 1506.49 1546.27 Q1503.84 1549.93 1503.84 1556.39 Q1503.84 1562.85 1506.49 1566.55 Q1509.16 1570.21 1513.81 1570.21 Q1518.45 1570.21 1521.1 1566.55 Q1523.77 1562.85 1523.77 1556.39 M1503.84 1543.95 Q1505.69 1540.77 1508.49 1539.24 Q1511.32 1537.68 1515.24 1537.68 Q1521.73 1537.68 1525.77 1542.83 Q1529.85 1547.99 1529.85 1556.39 Q1529.85 1564.8 1525.77 1569.95 Q1521.73 1575.11 1515.24 1575.11 Q1511.32 1575.11 1508.49 1573.58 Q1505.69 1572.02 1503.84 1568.84 L1503.84 1574.19 L1497.96 1574.19 L1497.96 1524.66 L1503.84 1524.66 L1503.84 1543.95 Z" fill="#000000" fill-rule="nonzero" fill-opacity="1" /><path clip-path="url(#clip000)" d="M1539.56 1524.66 L1545.41 1524.66 L1545.41 1574.19 L1539.56 1574.19 L1539.56 1524.66 Z" fill="#000000" fill-rule="nonzero" fill-opacity="1" /><path clip-path="url(#clip000)" d="M1588.16 1554.9 L1588.16 1557.76 L1561.23 1557.76 Q1561.61 1563.81 1564.86 1566.99 Q1568.14 1570.14 1573.96 1570.14 Q1577.34 1570.14 1580.49 1569.32 Q1583.67 1568.49 1586.79 1566.83 L1586.79 1572.37 Q1583.64 1573.71 1580.33 1574.41 Q1577.02 1575.11 1573.61 1575.11 Q1565.08 1575.11 1560.09 1570.14 Q1555.12 1565.18 1555.12 1556.71 Q1555.12 1547.96 1559.83 1542.83 Q1564.57 1537.68 1572.59 1537.68 Q1579.79 1537.68 1583.96 1542.33 Q1588.16 1546.94 1588.16 1554.9 M1582.3 1553.18 Q1582.24 1548.37 1579.6 1545.51 Q1576.99 1542.64 1572.66 1542.64 Q1567.76 1542.64 1564.8 1545.41 Q1561.87 1548.18 1561.42 1553.21 L1582.3 1553.18 Z" fill="#000000" fill-rule="nonzero" fill-opacity="1" /><path clip-path="url(#clip000)" d="M1620.5 1539.59 L1620.5 1545.13 Q1618.01 1543.85 1615.34 1543.22 Q1612.67 1542.58 1609.8 1542.58 Q1605.44 1542.58 1603.25 1543.92 Q1601.08 1545.25 1601.08 1547.93 Q1601.08 1549.96 1602.64 1551.14 Q1604.2 1552.29 1608.91 1553.34 L1610.92 1553.78 Q1617.15 1555.12 1619.76 1557.57 Q1622.41 1559.99 1622.41 1564.35 Q1622.41 1569.32 1618.46 1572.21 Q1614.54 1575.11 1607.67 1575.11 Q1604.8 1575.11 1601.69 1574.54 Q1598.6 1573.99 1595.16 1572.88 L1595.16 1566.83 Q1598.41 1568.52 1601.56 1569.38 Q1604.71 1570.21 1607.8 1570.21 Q1611.93 1570.21 1614.16 1568.81 Q1616.39 1567.37 1616.39 1564.8 Q1616.39 1562.41 1614.77 1561.14 Q1613.18 1559.86 1607.73 1558.68 L1605.7 1558.21 Q1600.25 1557.06 1597.83 1554.71 Q1595.42 1552.32 1595.42 1548.18 Q1595.42 1543.15 1598.98 1540.42 Q1602.54 1537.68 1609.1 1537.68 Q1612.35 1537.68 1615.21 1538.16 Q1618.08 1538.63 1620.5 1539.59 Z" fill="#000000" fill-rule="nonzero" fill-opacity="1" /><polyline clip-path="url(#clip000)" style="stroke:#000000; stroke-linecap:round; stroke-linejoin:round; stroke-width:4; stroke-opacity:1; fill:none" points="245.555,1410.9 245.555,123.472 "/>
<polyline clip-path="url(#clip000)" style="stroke:#000000; stroke-linecap:round; stroke-linejoin:round; stroke-width:4; stroke-opacity:1; fill:none" points="245.555,1222.01 264.452,1222.01 "/>
<polyline clip-path="url(#clip000)" style="stroke:#000000; stroke-linecap:round; stroke-linejoin:round; stroke-width:4; stroke-opacity:1; fill:none" points="245.555,642.681 264.452,642.681 "/>
<path clip-path="url(#clip000)" d="M119.885 1241.8 L136.204 1241.8 L136.204 1245.74 L114.26 1245.74 L114.26 1241.8 Q116.922 1239.05 121.505 1234.42 Q126.112 1229.76 127.292 1228.42 Q129.538 1225.9 130.417 1224.16 Q131.32 1222.4 131.32 1220.71 Q131.32 1217.96 129.376 1216.22 Q127.455 1214.49 124.353 1214.49 Q122.154 1214.49 119.7 1215.25 Q117.269 1216.01 114.492 1217.56 L114.492 1212.84 Q117.316 1211.71 119.769 1211.13 Q122.223 1210.55 124.26 1210.55 Q129.63 1210.55 132.825 1213.24 Q136.019 1215.92 136.019 1220.41 Q136.019 1222.54 135.209 1224.46 Q134.422 1226.36 132.316 1228.95 Q131.737 1229.63 128.635 1232.84 Q125.533 1236.04 119.885 1241.8 Z" fill="#000000" fill-rule="nonzero" fill-opacity="1" /><path clip-path="url(#clip000)" d="M136.204 1204.65 L160.316 1204.65 L160.316 1207.85 L136.204 1207.85 L136.204 1204.65 Z" fill="#000000" fill-rule="nonzero" fill-opacity="1" /><path clip-path="url(#clip000)" d="M169.175 1215.13 L175.381 1215.13 L175.381 1193.71 L168.629 1195.06 L168.629 1191.6 L175.343 1190.25 L179.143 1190.25 L179.143 1215.13 L185.349 1215.13 L185.349 1218.33 L169.175 1218.33 L169.175 1215.13 Z" fill="#000000" fill-rule="nonzero" fill-opacity="1" /><path clip-path="url(#clip000)" d="M196.295 1215.13 L209.555 1215.13 L209.555 1218.33 L191.725 1218.33 L191.725 1215.13 Q193.888 1212.89 197.612 1209.13 Q201.355 1205.35 202.314 1204.26 Q204.138 1202.21 204.853 1200.8 Q205.586 1199.37 205.586 1197.99 Q205.586 1195.76 204.006 1194.35 Q202.445 1192.94 199.925 1192.94 Q198.138 1192.94 196.145 1193.56 Q194.17 1194.18 191.913 1195.44 L191.913 1191.6 Q194.208 1190.68 196.201 1190.21 Q198.195 1189.74 199.85 1189.74 Q204.213 1189.74 206.809 1191.92 Q209.404 1194.1 209.404 1197.75 Q209.404 1199.48 208.746 1201.04 Q208.107 1202.58 206.395 1204.69 Q205.925 1205.24 203.405 1207.85 Q200.884 1210.45 196.295 1215.13 Z" fill="#000000" fill-rule="nonzero" fill-opacity="1" /><path clip-path="url(#clip000)" d="M173.826 662.474 L190.145 662.474 L190.145 666.409 L168.201 666.409 L168.201 662.474 Q170.863 659.719 175.446 655.09 Q180.053 650.437 181.233 649.094 Q183.479 646.571 184.358 644.835 Q185.261 643.076 185.261 641.386 Q185.261 638.631 183.317 636.895 Q181.395 635.159 178.293 635.159 Q176.094 635.159 173.641 635.923 Q171.21 636.687 168.432 638.238 L168.432 633.516 Q171.256 632.381 173.71 631.803 Q176.164 631.224 178.201 631.224 Q183.571 631.224 186.766 633.909 Q189.96 636.594 189.96 641.085 Q189.96 643.215 189.15 645.136 Q188.363 647.034 186.256 649.627 Q185.678 650.298 182.576 653.515 Q179.474 656.71 173.826 662.474 Z" fill="#000000" fill-rule="nonzero" fill-opacity="1" /><path clip-path="url(#clip000)" d="M199.85 613.42 Q196.916 613.42 195.43 616.316 Q193.963 619.194 193.963 624.987 Q193.963 630.761 195.43 633.657 Q196.916 636.535 199.85 636.535 Q202.803 636.535 204.27 633.657 Q205.756 630.761 205.756 624.987 Q205.756 619.194 204.27 616.316 Q202.803 613.42 199.85 613.42 M199.85 610.411 Q204.571 610.411 207.053 614.153 Q209.555 617.877 209.555 624.987 Q209.555 632.077 207.053 635.82 Q204.571 639.544 199.85 639.544 Q195.129 639.544 192.628 635.82 Q190.145 632.077 190.145 624.987 Q190.145 617.877 192.628 614.153 Q195.129 610.411 199.85 610.411 Z" fill="#000000" fill-rule="nonzero" fill-opacity="1" /><path clip-path="url(#clip000)" d="M18.2347 879.73 L28.3562 879.73 L28.3562 867.667 L32.9077 867.667 L32.9077 879.73 L52.2594 879.73 Q56.6199 879.73 57.8613 878.552 Q59.1026 877.343 59.1026 873.683 L59.1026 867.667 L64.0042 867.667 L64.0042 873.683 Q64.0042 880.462 61.4897 883.04 Q58.9434 885.618 52.2594 885.618 L32.9077 885.618 L32.9077 889.915 L28.3562 889.915 L28.3562 885.618 L18.2347 885.618 L18.2347 879.73 Z" fill="#000000" fill-rule="nonzero" fill-opacity="1" /><path clip-path="url(#clip000)" d="M28.3562 859.965 L28.3562 854.108 L64.0042 854.108 L64.0042 859.965 L28.3562 859.965 M14.479 859.965 L14.479 854.108 L21.895 854.108 L21.895 859.965 L14.479 859.965 Z" fill="#000000" fill-rule="nonzero" fill-opacity="1" /><path clip-path="url(#clip000)" d="M35.1993 814.1 Q31.2526 811.903 29.3747 808.848 Q27.4968 805.792 27.4968 801.655 Q27.4968 796.085 31.4117 793.061 Q35.2948 790.037 42.4881 790.037 L64.0042 790.037 L64.0042 795.926 L42.679 795.926 Q37.5546 795.926 35.072 797.74 Q32.5894 799.554 32.5894 803.278 Q32.5894 807.829 35.6131 810.471 Q38.6368 813.113 43.8567 813.113 L64.0042 813.113 L64.0042 819.001 L42.679 819.001 Q37.5228 819.001 35.072 820.815 Q32.5894 822.63 32.5894 826.417 Q32.5894 830.905 35.6449 833.547 Q38.6686 836.189 43.8567 836.189 L64.0042 836.189 L64.0042 842.077 L28.3562 842.077 L28.3562 836.189 L33.8944 836.189 Q30.616 834.183 29.0564 831.383 Q27.4968 828.582 27.4968 824.73 Q27.4968 820.847 29.4702 818.142 Q31.4436 815.405 35.1993 814.1 Z" fill="#000000" fill-rule="nonzero" fill-opacity="1" /><path clip-path="url(#clip000)" d="M44.7161 747.864 L47.5806 747.864 L47.5806 774.791 Q53.6281 774.409 56.8109 771.163 Q59.9619 767.885 59.9619 762.06 Q59.9619 758.686 59.1344 755.535 Q58.3069 752.352 56.6518 749.233 L62.1899 749.233 Q63.5267 752.384 64.227 755.694 Q64.9272 759.004 64.9272 762.41 Q64.9272 770.94 59.9619 775.937 Q54.9967 780.902 46.5303 780.902 Q37.7774 780.902 32.6531 776.192 Q27.4968 771.449 27.4968 763.429 Q27.4968 756.235 32.1438 752.066 Q36.7589 747.864 44.7161 747.864 M42.9973 753.721 Q38.1912 753.785 35.3266 756.426 Q32.4621 759.036 32.4621 763.365 Q32.4621 768.267 35.2312 771.227 Q38.0002 774.155 43.0292 774.6 L42.9973 753.721 Z" fill="#000000" fill-rule="nonzero" fill-opacity="1" /><path clip-path="url(#clip000)" d="M14.5426 703.464 Q21.8632 707.729 29.0246 709.798 Q36.186 711.866 43.5384 711.866 Q50.8908 711.866 58.1159 709.798 Q65.3091 707.697 72.5979 703.464 L72.5979 708.556 Q65.1182 713.331 57.8931 715.718 Q50.668 718.073 43.5384 718.073 Q36.4406 718.073 29.2474 715.718 Q22.0542 713.362 14.5426 708.556 L14.5426 703.464 Z" fill="#000000" fill-rule="nonzero" fill-opacity="1" /><path clip-path="url(#clip000)" d="M29.4065 669.375 L34.9447 669.375 Q33.6716 671.858 33.035 674.532 Q32.3984 677.205 32.3984 680.07 Q32.3984 684.43 33.7352 686.626 Q35.072 688.791 37.7456 688.791 Q39.7826 688.791 40.9603 687.231 Q42.1061 685.672 43.1565 680.961 L43.6021 678.956 Q44.9389 672.717 47.3897 670.107 Q49.8086 667.466 54.1691 667.466 Q59.1344 667.466 62.0308 671.412 Q64.9272 675.327 64.9272 682.202 Q64.9272 685.067 64.3543 688.186 Q63.8132 691.273 62.6992 694.711 L56.6518 694.711 Q58.3387 691.464 59.198 688.313 Q60.0256 685.162 60.0256 682.075 Q60.0256 677.937 58.6251 675.709 Q57.1929 673.481 54.6147 673.481 Q52.2276 673.481 50.9545 675.104 Q49.6813 676.696 48.5037 682.139 L48.0262 684.176 Q46.8804 689.618 44.5251 692.037 Q42.138 694.456 38.0002 694.456 Q32.9713 694.456 30.2341 690.891 Q27.4968 687.327 27.4968 680.77 Q27.4968 677.523 27.9743 674.659 Q28.4517 671.794 29.4065 669.375 Z" fill="#000000" fill-rule="nonzero" fill-opacity="1" /><path clip-path="url(#clip000)" d="M14.5426 659.063 L14.5426 653.97 Q22.0542 649.196 29.2474 646.841 Q36.4406 644.454 43.5384 644.454 Q50.668 644.454 57.8931 646.841 Q65.1182 649.196 72.5979 653.97 L72.5979 659.063 Q65.3091 654.83 58.1159 652.761 Q50.8908 650.66 43.5384 650.66 Q36.186 650.66 29.0246 652.761 Q21.8632 654.83 14.5426 659.063 Z" fill="#000000" fill-rule="nonzero" fill-opacity="1" /><path clip-path="url(#clip000)" d="M729.031 16.7545 L729.031 25.383 Q724.899 21.5346 720.2 19.6307 Q715.542 17.7268 710.275 17.7268 Q699.905 17.7268 694.396 24.0867 Q688.887 30.4061 688.887 42.3968 Q688.887 54.3469 694.396 60.7069 Q699.905 67.0263 710.275 67.0263 Q715.542 67.0263 720.2 65.1223 Q724.899 63.2184 729.031 59.3701 L729.031 67.9175 Q724.737 70.8341 719.917 72.2924 Q715.136 73.7508 709.789 73.7508 Q696.057 73.7508 688.157 65.3654 Q680.258 56.9395 680.258 42.3968 Q680.258 27.8135 688.157 19.4281 Q696.057 11.0023 709.789 11.0023 Q715.218 11.0023 719.998 12.4606 Q724.818 13.8784 729.031 16.7545 Z" fill="#000000" fill-rule="nonzero" fill-opacity="1" /><path clip-path="url(#clip000)" d="M758.927 32.4315 Q752.931 32.4315 749.448 37.1306 Q745.964 41.7891 745.964 49.9314 Q745.964 58.0738 749.407 62.7728 Q752.891 67.4314 758.927 67.4314 Q764.882 67.4314 768.365 62.7323 Q771.849 58.0333 771.849 49.9314 Q771.849 41.8701 768.365 37.1711 Q764.882 32.4315 758.927 32.4315 M758.927 26.1121 Q768.649 26.1121 774.199 32.4315 Q779.748 38.7509 779.748 49.9314 Q779.748 61.0714 774.199 67.4314 Q768.649 73.7508 758.927 73.7508 Q749.164 73.7508 743.614 67.4314 Q738.105 61.0714 738.105 49.9314 Q738.105 38.7509 743.614 32.4315 Q749.164 26.1121 758.927 26.1121 Z" fill="#000000" fill-rule="nonzero" fill-opacity="1" /><path clip-path="url(#clip000)" d="M821.027 28.5427 L821.027 35.5912 Q817.867 33.9709 814.465 33.1607 Q811.062 32.3505 807.416 32.3505 Q801.866 32.3505 799.071 34.0519 Q796.317 35.7533 796.317 39.156 Q796.317 41.7486 798.302 43.2475 Q800.286 44.7058 806.282 46.0426 L808.834 46.6097 Q816.774 48.3111 820.095 51.4303 Q823.458 54.509 823.458 60.0587 Q823.458 66.3781 818.435 70.0644 Q813.452 73.7508 804.702 73.7508 Q801.056 73.7508 797.086 73.0216 Q793.157 72.3329 788.782 70.9151 L788.782 63.2184 Q792.914 65.3654 796.924 66.4591 Q800.935 67.5124 804.864 67.5124 Q810.13 67.5124 812.966 65.73 Q815.801 63.9071 815.801 60.6258 Q815.801 57.5877 813.735 55.9673 Q811.71 54.3469 804.783 52.8481 L802.19 52.2405 Q795.263 50.7821 792.185 47.7845 Q789.106 44.7463 789.106 39.4801 Q789.106 33.0797 793.643 29.5959 Q798.18 26.1121 806.525 26.1121 Q810.657 26.1121 814.303 26.7198 Q817.948 27.3274 821.027 28.5427 Z" fill="#000000" fill-rule="nonzero" fill-opacity="1" /><path clip-path="url(#clip000)" d="M842.699 14.324 L842.699 27.2059 L858.052 27.2059 L858.052 32.9987 L842.699 32.9987 L842.699 57.6282 Q842.699 63.1779 844.198 64.7578 Q845.738 66.3376 850.396 66.3376 L858.052 66.3376 L858.052 72.576 L850.396 72.576 Q841.768 72.576 838.487 69.3758 Q835.205 66.1351 835.205 57.6282 L835.205 32.9987 L829.737 32.9987 L829.737 27.2059 L835.205 27.2059 L835.205 14.324 L842.699 14.324 Z" fill="#000000" fill-rule="nonzero" fill-opacity="1" /><path clip-path="url(#clip000)" d="M911.808 32.4315 Q905.813 32.4315 902.329 37.1306 Q898.845 41.7891 898.845 49.9314 Q898.845 58.0738 902.288 62.7728 Q905.772 67.4314 911.808 67.4314 Q917.763 67.4314 921.246 62.7323 Q924.73 58.0333 924.73 49.9314 Q924.73 41.8701 921.246 37.1711 Q917.763 32.4315 911.808 32.4315 M911.808 26.1121 Q921.53 26.1121 927.08 32.4315 Q932.63 38.7509 932.63 49.9314 Q932.63 61.0714 927.08 67.4314 Q921.53 73.7508 911.808 73.7508 Q902.045 73.7508 896.495 67.4314 Q890.986 61.0714 890.986 49.9314 Q890.986 38.7509 896.495 32.4315 Q902.045 26.1121 911.808 26.1121 Z" fill="#000000" fill-rule="nonzero" fill-opacity="1" /><path clip-path="url(#clip000)" d="M967.953 9.54393 L967.953 15.7418 L960.824 15.7418 Q956.813 15.7418 955.234 17.3622 Q953.694 18.9825 953.694 23.1955 L953.694 27.2059 L965.968 27.2059 L965.968 32.9987 L953.694 32.9987 L953.694 72.576 L946.2 72.576 L946.2 32.9987 L939.07 32.9987 L939.07 27.2059 L946.2 27.2059 L946.2 24.0462 Q946.2 16.471 949.724 13.0277 Q953.249 9.54393 960.905 9.54393 L967.953 9.54393 Z" fill="#000000" fill-rule="nonzero" fill-opacity="1" /><path clip-path="url(#clip000)" d="M1033.21 28.9478 L1033.21 35.9153 Q1030.05 34.1734 1026.85 33.3227 Q1023.69 32.4315 1020.45 32.4315 Q1013.2 32.4315 1009.19 37.0496 Q1005.18 41.6271 1005.18 49.9314 Q1005.18 58.2358 1009.19 62.8538 Q1013.2 67.4314 1020.45 67.4314 Q1023.69 67.4314 1026.85 66.5807 Q1030.05 65.6895 1033.21 63.9476 L1033.21 70.8341 Q1030.09 72.2924 1026.73 73.0216 Q1023.41 73.7508 1019.64 73.7508 Q1009.39 73.7508 1003.36 67.3098 Q997.322 60.8689 997.322 49.9314 Q997.322 38.832 1003.4 32.472 Q1009.52 26.1121 1020.13 26.1121 Q1023.57 26.1121 1026.85 26.8413 Q1030.13 27.5299 1033.21 28.9478 Z" fill="#000000" fill-rule="nonzero" fill-opacity="1" /><path clip-path="url(#clip000)" d="M1063.76 32.4315 Q1057.76 32.4315 1054.28 37.1306 Q1050.79 41.7891 1050.79 49.9314 Q1050.79 58.0738 1054.24 62.7728 Q1057.72 67.4314 1063.76 67.4314 Q1069.71 67.4314 1073.2 62.7323 Q1076.68 58.0333 1076.68 49.9314 Q1076.68 41.8701 1073.2 37.1711 Q1069.71 32.4315 1063.76 32.4315 M1063.76 26.1121 Q1073.48 26.1121 1079.03 32.4315 Q1084.58 38.7509 1084.58 49.9314 Q1084.58 61.0714 1079.03 67.4314 Q1073.48 73.7508 1063.76 73.7508 Q1053.99 73.7508 1048.44 67.4314 Q1042.94 61.0714 1042.94 49.9314 Q1042.94 38.7509 1048.44 32.4315 Q1053.99 26.1121 1063.76 26.1121 Z" fill="#000000" fill-rule="nonzero" fill-opacity="1" /><path clip-path="url(#clip000)" d="M1132.26 35.9153 Q1135.05 30.8922 1138.94 28.5022 Q1142.83 26.1121 1148.1 26.1121 Q1155.19 26.1121 1159.03 31.0947 Q1162.88 36.0368 1162.88 45.1919 L1162.88 72.576 L1155.39 72.576 L1155.39 45.4349 Q1155.39 38.913 1153.08 35.7533 Q1150.77 32.5936 1146.03 32.5936 Q1140.24 32.5936 1136.88 36.4419 Q1133.51 40.2903 1133.51 46.9338 L1133.51 72.576 L1126.02 72.576 L1126.02 45.4349 Q1126.02 38.8725 1123.71 35.7533 Q1121.4 32.5936 1116.58 32.5936 Q1110.87 32.5936 1107.51 36.4824 Q1104.14 40.3308 1104.14 46.9338 L1104.14 72.576 L1096.65 72.576 L1096.65 27.2059 L1104.14 27.2059 L1104.14 34.2544 Q1106.7 30.082 1110.26 28.0971 Q1113.83 26.1121 1118.73 26.1121 Q1123.67 26.1121 1127.11 28.6237 Q1130.6 31.1352 1132.26 35.9153 Z" fill="#000000" fill-rule="nonzero" fill-opacity="1" /><path clip-path="url(#clip000)" d="M1184.96 65.7705 L1184.96 89.8329 L1177.47 89.8329 L1177.47 27.2059 L1184.96 27.2059 L1184.96 34.0924 Q1187.31 30.0415 1190.87 28.0971 Q1194.48 26.1121 1199.46 26.1121 Q1207.73 26.1121 1212.87 32.6746 Q1218.06 39.2371 1218.06 49.9314 Q1218.06 60.6258 1212.87 67.1883 Q1207.73 73.7508 1199.46 73.7508 Q1194.48 73.7508 1190.87 71.8063 Q1187.31 69.8214 1184.96 65.7705 M1210.32 49.9314 Q1210.32 41.7081 1206.92 37.0496 Q1203.55 32.3505 1197.64 32.3505 Q1191.73 32.3505 1188.32 37.0496 Q1184.96 41.7081 1184.96 49.9314 Q1184.96 58.1548 1188.32 62.8538 Q1191.73 67.5124 1197.64 67.5124 Q1203.55 67.5124 1206.92 62.8538 Q1210.32 58.1548 1210.32 49.9314 Z" fill="#000000" fill-rule="nonzero" fill-opacity="1" /><path clip-path="url(#clip000)" d="M1229.64 54.671 L1229.64 27.2059 L1237.1 27.2059 L1237.1 54.3874 Q1237.1 60.8284 1239.61 64.0691 Q1242.12 67.2693 1247.14 67.2693 Q1253.18 67.2693 1256.66 63.421 Q1260.19 59.5726 1260.19 52.9291 L1260.19 27.2059 L1267.64 27.2059 L1267.64 72.576 L1260.19 72.576 L1260.19 65.6084 Q1257.47 69.7404 1253.87 71.7658 Q1250.3 73.7508 1245.56 73.7508 Q1237.74 73.7508 1233.69 68.8897 Q1229.64 64.0286 1229.64 54.671 M1248.4 26.1121 L1248.4 26.1121 Z" fill="#000000" fill-rule="nonzero" fill-opacity="1" /><path clip-path="url(#clip000)" d="M1290.36 14.324 L1290.36 27.2059 L1305.72 27.2059 L1305.72 32.9987 L1290.36 32.9987 L1290.36 57.6282 Q1290.36 63.1779 1291.86 64.7578 Q1293.4 66.3376 1298.06 66.3376 L1305.72 66.3376 L1305.72 72.576 L1298.06 72.576 Q1289.43 72.576 1286.15 69.3758 Q1282.87 66.1351 1282.87 57.6282 L1282.87 32.9987 L1277.4 32.9987 L1277.4 27.2059 L1282.87 27.2059 L1282.87 14.324 L1290.36 14.324 Z" fill="#000000" fill-rule="nonzero" fill-opacity="1" /><path clip-path="url(#clip000)" d="M1315.52 27.2059 L1322.97 27.2059 L1322.97 72.576 L1315.52 72.576 L1315.52 27.2059 M1315.52 9.54393 L1322.97 9.54393 L1322.97 18.9825 L1315.52 18.9825 L1315.52 9.54393 Z" fill="#000000" fill-rule="nonzero" fill-opacity="1" /><path clip-path="url(#clip000)" d="M1376.28 45.1919 L1376.28 72.576 L1368.83 72.576 L1368.83 45.4349 Q1368.83 38.994 1366.32 35.7938 Q1363.81 32.5936 1358.78 32.5936 Q1352.75 32.5936 1349.27 36.4419 Q1345.78 40.2903 1345.78 46.9338 L1345.78 72.576 L1338.29 72.576 L1338.29 27.2059 L1345.78 27.2059 L1345.78 34.2544 Q1348.45 30.163 1352.06 28.1376 Q1355.71 26.1121 1360.45 26.1121 Q1368.26 26.1121 1372.27 30.9732 Q1376.28 35.7938 1376.28 45.1919 Z" fill="#000000" fill-rule="nonzero" fill-opacity="1" /><path clip-path="url(#clip000)" d="M1421.01 49.3643 Q1421.01 41.2625 1417.64 36.8065 Q1414.32 32.3505 1408.29 32.3505 Q1402.29 32.3505 1398.93 36.8065 Q1395.61 41.2625 1395.61 49.3643 Q1395.61 57.4256 1398.93 61.8816 Q1402.29 66.3376 1408.29 66.3376 Q1414.32 66.3376 1417.64 61.8816 Q1421.01 57.4256 1421.01 49.3643 M1428.46 66.9452 Q1428.46 78.5308 1423.32 84.1616 Q1418.17 89.8329 1407.56 89.8329 Q1403.63 89.8329 1400.14 89.2252 Q1396.66 88.6581 1393.38 87.4428 L1393.38 80.1917 Q1396.66 81.9741 1399.86 82.8248 Q1403.06 83.6755 1406.38 83.6755 Q1413.71 83.6755 1417.36 79.8271 Q1421.01 76.0193 1421.01 68.282 L1421.01 64.5957 Q1418.7 68.6061 1415.09 70.5911 Q1411.49 72.576 1406.46 72.576 Q1398.12 72.576 1393.01 66.2161 Q1387.91 59.8562 1387.91 49.3643 Q1387.91 38.832 1393.01 32.472 Q1398.12 26.1121 1406.46 26.1121 Q1411.49 26.1121 1415.09 28.0971 Q1418.7 30.082 1421.01 34.0924 L1421.01 27.2059 L1428.46 27.2059 L1428.46 66.9452 Z" fill="#000000" fill-rule="nonzero" fill-opacity="1" /><path clip-path="url(#clip000)" d="M1500.04 34.0924 L1500.04 9.54393 L1507.49 9.54393 L1507.49 72.576 L1500.04 72.576 L1500.04 65.7705 Q1497.69 69.8214 1494.08 71.8063 Q1490.52 73.7508 1485.5 73.7508 Q1477.27 73.7508 1472.09 67.1883 Q1466.94 60.6258 1466.94 49.9314 Q1466.94 39.2371 1472.09 32.6746 Q1477.27 26.1121 1485.5 26.1121 Q1490.52 26.1121 1494.08 28.0971 Q1497.69 30.0415 1500.04 34.0924 M1474.64 49.9314 Q1474.64 58.1548 1478 62.8538 Q1481.41 67.5124 1487.32 67.5124 Q1493.23 67.5124 1496.64 62.8538 Q1500.04 58.1548 1500.04 49.9314 Q1500.04 41.7081 1496.64 37.0496 Q1493.23 32.3505 1487.32 32.3505 Q1481.41 32.3505 1478 37.0496 Q1474.64 41.7081 1474.64 49.9314 Z" fill="#000000" fill-rule="nonzero" fill-opacity="1" /><path clip-path="url(#clip000)" d="M1561.65 48.0275 L1561.65 51.6733 L1527.38 51.6733 Q1527.87 59.3701 1532 63.421 Q1536.17 67.4314 1543.59 67.4314 Q1547.88 67.4314 1551.89 66.3781 Q1555.94 65.3249 1559.91 63.2184 L1559.91 70.267 Q1555.9 71.9684 1551.69 72.8596 Q1547.48 73.7508 1543.14 73.7508 Q1532.28 73.7508 1525.92 67.4314 Q1519.61 61.1119 1519.61 50.3365 Q1519.61 39.1965 1525.6 32.6746 Q1531.64 26.1121 1541.85 26.1121 Q1551 26.1121 1556.31 32.0264 Q1561.65 37.9003 1561.65 48.0275 M1554.2 45.84 Q1554.12 39.7232 1550.76 36.0774 Q1547.44 32.4315 1541.93 32.4315 Q1535.69 32.4315 1531.92 35.9558 Q1528.19 39.4801 1527.63 45.8805 L1554.2 45.84 Z" fill="#000000" fill-rule="nonzero" fill-opacity="1" /><path clip-path="url(#clip000)" d="M1600.18 34.1734 Q1598.92 33.4443 1597.42 33.1202 Q1595.97 32.7556 1594.18 32.7556 Q1587.86 32.7556 1584.46 36.8875 Q1581.1 40.9789 1581.1 48.6757 L1581.1 72.576 L1573.6 72.576 L1573.6 27.2059 L1581.1 27.2059 L1581.1 34.2544 Q1583.45 30.1225 1587.22 28.1376 Q1590.98 26.1121 1596.37 26.1121 Q1597.14 26.1121 1598.07 26.2337 Q1599 26.3147 1600.14 26.5172 L1600.18 34.1734 Z" fill="#000000" fill-rule="nonzero" fill-opacity="1" /><path clip-path="url(#clip000)" d="M1608 27.2059 L1615.45 27.2059 L1615.45 72.576 L1608 72.576 L1608 27.2059 M1608 9.54393 L1615.45 9.54393 L1615.45 18.9825 L1608 18.9825 L1608 9.54393 Z" fill="#000000" fill-rule="nonzero" fill-opacity="1" /><path clip-path="url(#clip000)" d="M1625.7 27.2059 L1633.6 27.2059 L1647.78 65.2844 L1661.95 27.2059 L1669.85 27.2059 L1652.84 72.576 L1642.71 72.576 L1625.7 27.2059 Z" fill="#000000" fill-rule="nonzero" fill-opacity="1" /><path clip-path="url(#clip000)" d="M1700.76 49.7694 Q1691.73 49.7694 1688.24 51.8354 Q1684.76 53.9013 1684.76 58.8839 Q1684.76 62.8538 1687.35 65.2034 Q1689.99 67.5124 1694.48 67.5124 Q1700.68 67.5124 1704.41 63.1374 Q1708.18 58.7219 1708.18 51.4303 L1708.18 49.7694 L1700.76 49.7694 M1715.63 46.6907 L1715.63 72.576 L1708.18 72.576 L1708.18 65.6895 Q1705.62 69.8214 1701.82 71.8063 Q1698.01 73.7508 1692.5 73.7508 Q1685.53 73.7508 1681.4 69.8619 Q1677.31 65.9325 1677.31 59.3701 Q1677.31 51.7138 1682.41 47.825 Q1687.56 43.9361 1697.72 43.9361 L1708.18 43.9361 L1708.18 43.2069 Q1708.18 38.0623 1704.77 35.2672 Q1701.41 32.4315 1695.29 32.4315 Q1691.4 32.4315 1687.72 33.3632 Q1684.03 34.295 1680.63 36.1584 L1680.63 29.2718 Q1684.72 27.692 1688.57 26.9223 Q1692.42 26.1121 1696.06 26.1121 Q1705.91 26.1121 1710.77 31.2163 Q1715.63 36.3204 1715.63 46.6907 Z" fill="#000000" fill-rule="nonzero" fill-opacity="1" /><path clip-path="url(#clip000)" d="M1738.35 14.324 L1738.35 27.2059 L1753.71 27.2059 L1753.71 32.9987 L1738.35 32.9987 L1738.35 57.6282 Q1738.35 63.1779 1739.85 64.7578 Q1741.39 66.3376 1746.05 66.3376 L1753.71 66.3376 L1753.71 72.576 L1746.05 72.576 Q1737.42 72.576 1734.14 69.3758 Q1730.86 66.1351 1730.86 57.6282 L1730.86 32.9987 L1725.39 32.9987 L1725.39 27.2059 L1730.86 27.2059 L1730.86 14.324 L1738.35 14.324 Z" fill="#000000" fill-rule="nonzero" fill-opacity="1" /><path clip-path="url(#clip000)" d="M1763.51 27.2059 L1770.96 27.2059 L1770.96 72.576 L1763.51 72.576 L1763.51 27.2059 M1763.51 9.54393 L1770.96 9.54393 L1770.96 18.9825 L1763.51 18.9825 L1763.51 9.54393 Z" fill="#000000" fill-rule="nonzero" fill-opacity="1" /><path clip-path="url(#clip000)" d="M1781.21 27.2059 L1789.11 27.2059 L1803.29 65.2844 L1817.47 27.2059 L1825.37 27.2059 L1808.35 72.576 L1798.23 72.576 L1781.21 27.2059 Z" fill="#000000" fill-rule="nonzero" fill-opacity="1" /><path clip-path="url(#clip000)" d="M1874.46 48.0275 L1874.46 51.6733 L1840.19 51.6733 Q1840.68 59.3701 1844.81 63.421 Q1848.98 67.4314 1856.4 67.4314 Q1860.69 67.4314 1864.7 66.3781 Q1868.75 65.3249 1872.72 63.2184 L1872.72 70.267 Q1868.71 71.9684 1864.5 72.8596 Q1860.29 73.7508 1855.95 73.7508 Q1845.1 73.7508 1838.74 67.4314 Q1832.42 61.1119 1832.42 50.3365 Q1832.42 39.1965 1838.41 32.6746 Q1844.45 26.1121 1854.66 26.1121 Q1863.81 26.1121 1869.12 32.0264 Q1874.46 37.9003 1874.46 48.0275 M1867.01 45.84 Q1866.93 39.7232 1863.57 36.0774 Q1860.25 32.4315 1854.74 32.4315 Q1848.5 32.4315 1844.73 35.9558 Q1841 39.4801 1840.44 45.8805 L1867.01 45.84 Z" fill="#000000" fill-rule="nonzero" fill-opacity="1" /><path clip-path="url(#clip000)" d="M1915.62 28.5427 L1915.62 35.5912 Q1912.46 33.9709 1909.06 33.1607 Q1905.66 32.3505 1902.01 32.3505 Q1896.46 32.3505 1893.67 34.0519 Q1890.91 35.7533 1890.91 39.156 Q1890.91 41.7486 1892.9 43.2475 Q1894.88 44.7058 1900.88 46.0426 L1903.43 46.6097 Q1911.37 48.3111 1914.69 51.4303 Q1918.05 54.509 1918.05 60.0587 Q1918.05 66.3781 1913.03 70.0644 Q1908.05 73.7508 1899.3 73.7508 Q1895.65 73.7508 1891.68 73.0216 Q1887.75 72.3329 1883.38 70.9151 L1883.38 63.2184 Q1887.51 65.3654 1891.52 66.4591 Q1895.53 67.5124 1899.46 67.5124 Q1904.73 67.5124 1907.56 65.73 Q1910.4 63.9071 1910.4 60.6258 Q1910.4 57.5877 1908.33 55.9673 Q1906.3 54.3469 1899.38 52.8481 L1896.79 52.2405 Q1889.86 50.7821 1886.78 47.7845 Q1883.7 44.7463 1883.7 39.4801 Q1883.7 33.0797 1888.24 29.5959 Q1892.77 26.1121 1901.12 26.1121 Q1905.25 26.1121 1908.9 26.7198 Q1912.54 27.3274 1915.62 28.5427 Z" fill="#000000" fill-rule="nonzero" fill-opacity="1" /><polyline clip-path="url(#clip001)" style="stroke:#009af9; stroke-linecap:round; stroke-linejoin:round; stroke-width:4; stroke-opacity:1; fill:none" points="305.193,1374.46 526.073,1373.18 746.954,1372.35 967.834,1369.41 1188.72,1371.14 1409.6,1364.01 1630.48,1350.92 1851.36,1341.73 2072.24,1325.14 2293.12,1302.16 "/>
<polyline clip-path="url(#clip001)" style="stroke:#e26f46; stroke-linecap:round; stroke-linejoin:round; stroke-width:4; stroke-opacity:1; fill:none" stroke-dasharray="16, 10" points="305.193,1318.56 526.073,1318.56 746.954,1318.56 967.834,1318.56 1188.72,1318.56 1409.6,1318.56 1630.48,1318.56 1851.36,1318.56 2072.24,1318.56 2293.12,1318.56 "/>
<polyline clip-path="url(#clip001)" style="stroke:#3da44d; stroke-linecap:round; stroke-linejoin:round; stroke-width:4; stroke-opacity:1; fill:none" points="305.193,1219.26 526.073,1141.5 746.954,1052.56 967.834,956.631 1188.72,853.901 1409.6,742.339 1630.48,617.815 1851.36,492.833 2072.24,358.739 2293.12,213.033 "/>
<polyline clip-path="url(#clip001)" style="stroke:#c271d2; stroke-linecap:round; stroke-linejoin:round; stroke-width:4; stroke-opacity:1; fill:none" stroke-dasharray="16, 10" points="305.193,1028.9 526.073,932.345 746.954,835.79 967.834,739.236 1188.72,642.681 1409.6,546.127 1630.48,449.572 1851.36,353.018 2072.24,256.463 2293.12,159.909 "/>
<path clip-path="url(#clip000)" d="M315.795 425.586 L746.606 425.586 L746.606 166.386 L315.795 166.386  Z" fill="#ffffff" fill-rule="evenodd" fill-opacity="1"/>
<polyline clip-path="url(#clip000)" style="stroke:#000000; stroke-linecap:round; stroke-linejoin:round; stroke-width:4; stroke-opacity:1; fill:none" points="315.795,425.586 746.606,425.586 746.606,166.386 315.795,166.386 315.795,425.586 "/>
<polyline clip-path="url(#clip000)" style="stroke:#009af9; stroke-linecap:round; stroke-linejoin:round; stroke-width:4; stroke-opacity:1; fill:none" points="339.208,218.226 479.688,218.226 "/>
<path clip-path="url(#clip000)" d="M522.014 222.242 Q522.014 217.613 520.092 215.067 Q518.194 212.52 514.745 212.52 Q511.319 212.52 509.398 215.067 Q507.5 217.613 507.5 222.242 Q507.5 226.849 509.398 229.395 Q511.319 231.941 514.745 231.941 Q518.194 231.941 520.092 229.395 Q522.014 226.849 522.014 222.242 M526.273 232.289 Q526.273 238.909 523.333 242.127 Q520.393 245.367 514.328 245.367 Q512.083 245.367 510.092 245.02 Q508.102 244.696 506.227 244.002 L506.227 239.858 Q508.102 240.877 509.93 241.363 Q511.759 241.849 513.657 241.849 Q517.847 241.849 519.93 239.65 Q522.014 237.474 522.014 233.053 L522.014 230.946 Q520.694 233.238 518.634 234.372 Q516.574 235.506 513.703 235.506 Q508.935 235.506 506.018 231.872 Q503.102 228.238 503.102 222.242 Q503.102 216.224 506.018 212.59 Q508.935 208.955 513.703 208.955 Q516.574 208.955 518.634 210.09 Q520.694 211.224 522.014 213.516 L522.014 209.58 L526.273 209.58 L526.273 232.289 Z" fill="#000000" fill-rule="nonzero" fill-opacity="1" /><path clip-path="url(#clip000)" d="M550.069 213.562 Q549.351 213.145 548.495 212.96 Q547.662 212.752 546.643 212.752 Q543.032 212.752 541.087 215.113 Q539.166 217.451 539.166 221.849 L539.166 235.506 L534.884 235.506 L534.884 209.58 L539.166 209.58 L539.166 213.608 Q540.509 211.247 542.662 210.113 Q544.814 208.955 547.893 208.955 Q548.333 208.955 548.865 209.025 Q549.398 209.071 550.046 209.187 L550.069 213.562 Z" fill="#000000" fill-rule="nonzero" fill-opacity="1" /><path clip-path="url(#clip000)" d="M566.319 222.474 Q561.157 222.474 559.166 223.654 Q557.175 224.835 557.175 227.682 Q557.175 229.951 558.657 231.293 Q560.161 232.613 562.731 232.613 Q566.273 232.613 568.402 230.113 Q570.555 227.59 570.555 223.423 L570.555 222.474 L566.319 222.474 M574.814 220.715 L574.814 235.506 L570.555 235.506 L570.555 231.571 Q569.097 233.932 566.921 235.066 Q564.745 236.178 561.597 236.178 Q557.615 236.178 555.254 233.955 Q552.916 231.71 552.916 227.96 Q552.916 223.585 555.833 221.363 Q558.773 219.141 564.583 219.141 L570.555 219.141 L570.555 218.724 Q570.555 215.784 568.61 214.187 Q566.689 212.567 563.194 212.567 Q560.972 212.567 558.865 213.099 Q556.759 213.631 554.814 214.696 L554.814 210.761 Q557.152 209.858 559.351 209.418 Q561.55 208.955 563.634 208.955 Q569.259 208.955 572.036 211.872 Q574.814 214.789 574.814 220.715 Z" fill="#000000" fill-rule="nonzero" fill-opacity="1" /><path clip-path="url(#clip000)" d="M600.647 213.516 L600.647 199.488 L604.907 199.488 L604.907 235.506 L600.647 235.506 L600.647 231.617 Q599.305 233.932 597.245 235.066 Q595.208 236.178 592.337 236.178 Q587.638 236.178 584.675 232.428 Q581.735 228.678 581.735 222.567 Q581.735 216.455 584.675 212.705 Q587.638 208.955 592.337 208.955 Q595.208 208.955 597.245 210.09 Q599.305 211.201 600.647 213.516 M586.134 222.567 Q586.134 227.266 588.055 229.951 Q589.999 232.613 593.379 232.613 Q596.758 232.613 598.703 229.951 Q600.647 227.266 600.647 222.567 Q600.647 217.867 598.703 215.205 Q596.758 212.52 593.379 212.52 Q589.999 212.52 588.055 215.205 Q586.134 217.867 586.134 222.567 Z" fill="#000000" fill-rule="nonzero" fill-opacity="1" /><path clip-path="url(#clip000)" d="M613.68 209.58 L617.939 209.58 L617.939 235.506 L613.68 235.506 L613.68 209.58 M613.68 199.488 L617.939 199.488 L617.939 204.881 L613.68 204.881 L613.68 199.488 Z" fill="#000000" fill-rule="nonzero" fill-opacity="1" /><path clip-path="url(#clip000)" d="M649.027 221.479 L649.027 223.562 L629.444 223.562 Q629.721 227.96 632.082 230.275 Q634.467 232.566 638.703 232.566 Q641.156 232.566 643.448 231.965 Q645.763 231.363 648.031 230.159 L648.031 234.187 Q645.74 235.159 643.332 235.668 Q640.925 236.178 638.448 236.178 Q632.244 236.178 628.61 232.566 Q624.999 228.955 624.999 222.798 Q624.999 216.432 628.425 212.705 Q631.874 208.955 637.707 208.955 Q642.939 208.955 645.971 212.335 Q649.027 215.692 649.027 221.479 M644.767 220.229 Q644.721 216.733 642.8 214.65 Q640.902 212.567 637.754 212.567 Q634.189 212.567 632.036 214.58 Q629.906 216.594 629.582 220.252 L644.767 220.229 Z" fill="#000000" fill-rule="nonzero" fill-opacity="1" /><path clip-path="url(#clip000)" d="M677.568 219.858 L677.568 235.506 L673.309 235.506 L673.309 219.997 Q673.309 216.317 671.874 214.488 Q670.439 212.659 667.568 212.659 Q664.119 212.659 662.129 214.858 Q660.138 217.057 660.138 220.854 L660.138 235.506 L655.855 235.506 L655.855 209.58 L660.138 209.58 L660.138 213.608 Q661.666 211.27 663.726 210.113 Q665.809 208.955 668.517 208.955 Q672.985 208.955 675.277 211.733 Q677.568 214.488 677.568 219.858 Z" fill="#000000" fill-rule="nonzero" fill-opacity="1" /><path clip-path="url(#clip000)" d="M690.277 202.219 L690.277 209.58 L699.05 209.58 L699.05 212.891 L690.277 212.891 L690.277 226.965 Q690.277 230.136 691.133 231.039 Q692.013 231.941 694.675 231.941 L699.05 231.941 L699.05 235.506 L694.675 235.506 Q689.744 235.506 687.869 233.678 Q685.994 231.826 685.994 226.965 L685.994 212.891 L682.869 212.891 L682.869 209.58 L685.994 209.58 L685.994 202.219 L690.277 202.219 Z" fill="#000000" fill-rule="nonzero" fill-opacity="1" /><polyline clip-path="url(#clip000)" style="stroke:#e26f46; stroke-linecap:round; stroke-linejoin:round; stroke-width:4; stroke-opacity:1; fill:none" stroke-dasharray="16, 10" points="339.208,270.066 479.688,270.066 "/>
<path clip-path="url(#clip000)" d="M523.611 262.416 L523.611 266.397 Q521.805 265.402 519.976 264.916 Q518.171 264.407 516.319 264.407 Q512.176 264.407 509.884 267.045 Q507.592 269.661 507.592 274.407 Q507.592 279.152 509.884 281.791 Q512.176 284.406 516.319 284.406 Q518.171 284.406 519.976 283.92 Q521.805 283.411 523.611 282.416 L523.611 286.351 Q521.828 287.184 519.907 287.601 Q518.009 288.018 515.856 288.018 Q510 288.018 506.551 284.337 Q503.102 280.656 503.102 274.407 Q503.102 268.064 506.574 264.43 Q510.069 260.795 516.134 260.795 Q518.102 260.795 519.976 261.212 Q521.851 261.606 523.611 262.416 Z" fill="#000000" fill-rule="nonzero" fill-opacity="1" /><path clip-path="url(#clip000)" d="M541.064 264.407 Q537.638 264.407 535.648 267.092 Q533.657 269.754 533.657 274.407 Q533.657 279.059 535.625 281.744 Q537.615 284.406 541.064 284.406 Q544.467 284.406 546.458 281.721 Q548.449 279.036 548.449 274.407 Q548.449 269.8 546.458 267.115 Q544.467 264.407 541.064 264.407 M541.064 260.795 Q546.62 260.795 549.791 264.407 Q552.962 268.018 552.962 274.407 Q552.962 280.772 549.791 284.406 Q546.62 288.018 541.064 288.018 Q535.486 288.018 532.314 284.406 Q529.166 280.772 529.166 274.407 Q529.166 268.018 532.314 264.407 Q535.486 260.795 541.064 260.795 Z" fill="#000000" fill-rule="nonzero" fill-opacity="1" /><path clip-path="url(#clip000)" d="M581.573 271.698 L581.573 287.346 L577.314 287.346 L577.314 271.837 Q577.314 268.157 575.879 266.328 Q574.444 264.499 571.573 264.499 Q568.124 264.499 566.134 266.698 Q564.143 268.897 564.143 272.694 L564.143 287.346 L559.861 287.346 L559.861 261.42 L564.143 261.42 L564.143 265.448 Q565.671 263.11 567.731 261.953 Q569.814 260.795 572.523 260.795 Q576.99 260.795 579.282 263.573 Q581.573 266.328 581.573 271.698 Z" fill="#000000" fill-rule="nonzero" fill-opacity="1" /><path clip-path="url(#clip000)" d="M606.596 262.184 L606.596 266.212 Q604.791 265.286 602.846 264.823 Q600.902 264.36 598.819 264.36 Q595.647 264.36 594.05 265.333 Q592.476 266.305 592.476 268.249 Q592.476 269.731 593.61 270.587 Q594.745 271.42 598.171 272.184 L599.629 272.508 Q604.166 273.481 606.064 275.263 Q607.985 277.022 607.985 280.194 Q607.985 283.805 605.115 285.911 Q602.268 288.018 597.268 288.018 Q595.184 288.018 592.916 287.601 Q590.671 287.207 588.171 286.397 L588.171 281.999 Q590.532 283.226 592.823 283.851 Q595.115 284.453 597.36 284.453 Q600.37 284.453 601.99 283.434 Q603.61 282.393 603.61 280.518 Q603.61 278.782 602.43 277.856 Q601.272 276.93 597.314 276.073 L595.833 275.726 Q591.874 274.893 590.115 273.18 Q588.356 271.444 588.356 268.434 Q588.356 264.777 590.948 262.786 Q593.541 260.795 598.309 260.795 Q600.671 260.795 602.754 261.143 Q604.837 261.49 606.596 262.184 Z" fill="#000000" fill-rule="nonzero" fill-opacity="1" /><path clip-path="url(#clip000)" d="M618.981 254.059 L618.981 261.42 L627.754 261.42 L627.754 264.731 L618.981 264.731 L618.981 278.805 Q618.981 281.976 619.837 282.879 Q620.717 283.781 623.379 283.781 L627.754 283.781 L627.754 287.346 L623.379 287.346 Q618.448 287.346 616.573 285.518 Q614.698 283.666 614.698 278.805 L614.698 264.731 L611.573 264.731 L611.573 261.42 L614.698 261.42 L614.698 254.059 L618.981 254.059 Z" fill="#000000" fill-rule="nonzero" fill-opacity="1" /><path clip-path="url(#clip000)" d="M645.138 274.314 Q639.976 274.314 637.985 275.494 Q635.994 276.675 635.994 279.522 Q635.994 281.791 637.476 283.133 Q638.98 284.453 641.55 284.453 Q645.092 284.453 647.221 281.953 Q649.374 279.43 649.374 275.263 L649.374 274.314 L645.138 274.314 M653.633 272.555 L653.633 287.346 L649.374 287.346 L649.374 283.411 Q647.916 285.772 645.74 286.906 Q643.564 288.018 640.416 288.018 Q636.434 288.018 634.073 285.795 Q631.735 283.55 631.735 279.8 Q631.735 275.425 634.652 273.203 Q637.592 270.981 643.402 270.981 L649.374 270.981 L649.374 270.564 Q649.374 267.624 647.43 266.027 Q645.508 264.407 642.013 264.407 Q639.791 264.407 637.684 264.939 Q635.578 265.471 633.633 266.536 L633.633 262.601 Q635.971 261.698 638.17 261.258 Q640.369 260.795 642.453 260.795 Q648.078 260.795 650.855 263.712 Q653.633 266.629 653.633 272.555 Z" fill="#000000" fill-rule="nonzero" fill-opacity="1" /><path clip-path="url(#clip000)" d="M683.957 271.698 L683.957 287.346 L679.698 287.346 L679.698 271.837 Q679.698 268.157 678.263 266.328 Q676.828 264.499 673.957 264.499 Q670.508 264.499 668.517 266.698 Q666.527 268.897 666.527 272.694 L666.527 287.346 L662.244 287.346 L662.244 261.42 L666.527 261.42 L666.527 265.448 Q668.054 263.11 670.115 261.953 Q672.198 260.795 674.906 260.795 Q679.374 260.795 681.665 263.573 Q683.957 266.328 683.957 271.698 Z" fill="#000000" fill-rule="nonzero" fill-opacity="1" /><path clip-path="url(#clip000)" d="M696.665 254.059 L696.665 261.42 L705.438 261.42 L705.438 264.731 L696.665 264.731 L696.665 278.805 Q696.665 281.976 697.522 282.879 Q698.401 283.781 701.063 283.781 L705.438 283.781 L705.438 287.346 L701.063 287.346 Q696.133 287.346 694.258 285.518 Q692.383 283.666 692.383 278.805 L692.383 264.731 L689.258 264.731 L689.258 261.42 L692.383 261.42 L692.383 254.059 L696.665 254.059 Z" fill="#000000" fill-rule="nonzero" fill-opacity="1" /><polyline clip-path="url(#clip000)" style="stroke:#3da44d; stroke-linecap:round; stroke-linejoin:round; stroke-width:4; stroke-opacity:1; fill:none" points="339.208,321.906 479.688,321.906 "/>
<path clip-path="url(#clip000)" d="M508.426 313.26 L512.685 313.26 L512.685 339.649 Q512.685 344.603 510.787 346.825 Q508.912 349.047 504.722 349.047 L503.102 349.047 L503.102 345.436 L504.236 345.436 Q506.666 345.436 507.546 344.302 Q508.426 343.191 508.426 339.649 L508.426 313.26 M508.426 303.168 L512.685 303.168 L512.685 308.561 L508.426 308.561 L508.426 303.168 Z" fill="#000000" fill-rule="nonzero" fill-opacity="1" /><path clip-path="url(#clip000)" d="M533.379 326.154 Q528.217 326.154 526.226 327.334 Q524.236 328.515 524.236 331.362 Q524.236 333.631 525.717 334.973 Q527.222 336.293 529.791 336.293 Q533.333 336.293 535.463 333.793 Q537.615 331.27 537.615 327.103 L537.615 326.154 L533.379 326.154 M541.875 324.395 L541.875 339.186 L537.615 339.186 L537.615 335.251 Q536.157 337.612 533.981 338.746 Q531.805 339.858 528.657 339.858 Q524.676 339.858 522.314 337.635 Q519.976 335.39 519.976 331.64 Q519.976 327.265 522.893 325.043 Q525.833 322.821 531.643 322.821 L537.615 322.821 L537.615 322.404 Q537.615 319.464 535.671 317.867 Q533.75 316.247 530.254 316.247 Q528.032 316.247 525.926 316.779 Q523.819 317.311 521.875 318.376 L521.875 314.441 Q524.213 313.538 526.412 313.098 Q528.611 312.635 530.694 312.635 Q536.319 312.635 539.097 315.552 Q541.875 318.469 541.875 324.395 Z" fill="#000000" fill-rule="nonzero" fill-opacity="1" /><path clip-path="url(#clip000)" d="M569.305 314.256 L569.305 318.237 Q567.499 317.242 565.671 316.756 Q563.865 316.247 562.013 316.247 Q557.87 316.247 555.578 318.885 Q553.287 321.501 553.287 326.247 Q553.287 330.992 555.578 333.631 Q557.87 336.246 562.013 336.246 Q563.865 336.246 565.671 335.76 Q567.499 335.251 569.305 334.256 L569.305 338.191 Q567.523 339.024 565.601 339.441 Q563.703 339.858 561.55 339.858 Q555.694 339.858 552.245 336.177 Q548.796 332.496 548.796 326.247 Q548.796 319.904 552.268 316.27 Q555.763 312.635 561.828 312.635 Q563.796 312.635 565.671 313.052 Q567.546 313.446 569.305 314.256 Z" fill="#000000" fill-rule="nonzero" fill-opacity="1" /><path clip-path="url(#clip000)" d="M586.759 316.247 Q583.333 316.247 581.342 318.932 Q579.351 321.594 579.351 326.247 Q579.351 330.899 581.319 333.584 Q583.309 336.246 586.759 336.246 Q590.161 336.246 592.152 333.561 Q594.143 330.876 594.143 326.247 Q594.143 321.64 592.152 318.955 Q590.161 316.247 586.759 316.247 M586.759 312.635 Q592.314 312.635 595.485 316.247 Q598.657 319.858 598.657 326.247 Q598.657 332.612 595.485 336.246 Q592.314 339.858 586.759 339.858 Q581.18 339.858 578.009 336.246 Q574.86 332.612 574.86 326.247 Q574.86 319.858 578.009 316.247 Q581.18 312.635 586.759 312.635 Z" fill="#000000" fill-rule="nonzero" fill-opacity="1" /><path clip-path="url(#clip000)" d="M624.328 326.247 Q624.328 321.547 622.383 318.885 Q620.462 316.2 617.082 316.2 Q613.703 316.2 611.758 318.885 Q609.837 321.547 609.837 326.247 Q609.837 330.946 611.758 333.631 Q613.703 336.293 617.082 336.293 Q620.462 336.293 622.383 333.631 Q624.328 330.946 624.328 326.247 M609.837 317.196 Q611.18 314.881 613.217 313.77 Q615.277 312.635 618.124 312.635 Q622.846 312.635 625.786 316.385 Q628.749 320.135 628.749 326.247 Q628.749 332.358 625.786 336.108 Q622.846 339.858 618.124 339.858 Q615.277 339.858 613.217 338.746 Q611.18 337.612 609.837 335.297 L609.837 339.186 L605.555 339.186 L605.555 303.168 L609.837 303.168 L609.837 317.196 Z" fill="#000000" fill-rule="nonzero" fill-opacity="1" /><path clip-path="url(#clip000)" d="M635.809 313.26 L640.068 313.26 L640.068 339.186 L635.809 339.186 L635.809 313.26 M635.809 303.168 L640.068 303.168 L640.068 308.561 L635.809 308.561 L635.809 303.168 Z" fill="#000000" fill-rule="nonzero" fill-opacity="1" /><path clip-path="url(#clip000)" d="M660.763 326.154 Q655.601 326.154 653.61 327.334 Q651.619 328.515 651.619 331.362 Q651.619 333.631 653.101 334.973 Q654.605 336.293 657.175 336.293 Q660.716 336.293 662.846 333.793 Q664.999 331.27 664.999 327.103 L664.999 326.154 L660.763 326.154 M669.258 324.395 L669.258 339.186 L664.999 339.186 L664.999 335.251 Q663.541 337.612 661.365 338.746 Q659.189 339.858 656.041 339.858 Q652.059 339.858 649.698 337.635 Q647.36 335.39 647.36 331.64 Q647.36 327.265 650.277 325.043 Q653.217 322.821 659.027 322.821 L664.999 322.821 L664.999 322.404 Q664.999 319.464 663.054 317.867 Q661.133 316.247 657.638 316.247 Q655.416 316.247 653.309 316.779 Q651.203 317.311 649.258 318.376 L649.258 314.441 Q651.596 313.538 653.795 313.098 Q655.994 312.635 658.078 312.635 Q663.703 312.635 666.48 315.552 Q669.258 318.469 669.258 324.395 Z" fill="#000000" fill-rule="nonzero" fill-opacity="1" /><path clip-path="url(#clip000)" d="M699.582 323.538 L699.582 339.186 L695.323 339.186 L695.323 323.677 Q695.323 319.997 693.888 318.168 Q692.452 316.339 689.582 316.339 Q686.133 316.339 684.142 318.538 Q682.152 320.737 682.152 324.534 L682.152 339.186 L677.869 339.186 L677.869 313.26 L682.152 313.26 L682.152 317.288 Q683.679 314.95 685.739 313.793 Q687.823 312.635 690.531 312.635 Q694.999 312.635 697.29 315.413 Q699.582 318.168 699.582 323.538 Z" fill="#000000" fill-rule="nonzero" fill-opacity="1" /><polyline clip-path="url(#clip000)" style="stroke:#c271d2; stroke-linecap:round; stroke-linejoin:round; stroke-width:4; stroke-opacity:1; fill:none" stroke-dasharray="16, 10" points="339.208,373.746 479.688,373.746 "/>
<path clip-path="url(#clip000)" d="M507.5 378.087 Q507.5 382.786 509.421 385.471 Q511.365 388.133 514.745 388.133 Q518.125 388.133 520.069 385.471 Q522.014 382.786 522.014 378.087 Q522.014 373.387 520.069 370.725 Q518.125 368.04 514.745 368.04 Q511.365 368.04 509.421 370.725 Q507.5 373.387 507.5 378.087 M522.014 387.137 Q520.671 389.452 518.611 390.586 Q516.574 391.698 513.703 391.698 Q509.004 391.698 506.041 387.948 Q503.102 384.198 503.102 378.087 Q503.102 371.975 506.041 368.225 Q509.004 364.475 513.703 364.475 Q516.574 364.475 518.611 365.61 Q520.671 366.721 522.014 369.036 L522.014 365.1 L526.273 365.1 L526.273 400.887 L522.014 400.887 L522.014 387.137 Z" fill="#000000" fill-rule="nonzero" fill-opacity="1" /><path clip-path="url(#clip000)" d="M534.606 380.795 L534.606 365.1 L538.865 365.1 L538.865 380.633 Q538.865 384.313 540.3 386.165 Q541.736 387.994 544.606 387.994 Q548.055 387.994 550.046 385.795 Q552.06 383.596 552.06 379.799 L552.06 365.1 L556.319 365.1 L556.319 391.026 L552.06 391.026 L552.06 387.045 Q550.509 389.406 548.449 390.563 Q546.412 391.698 543.703 391.698 Q539.236 391.698 536.921 388.92 Q534.606 386.142 534.606 380.795 M545.324 364.475 L545.324 364.475 Z" fill="#000000" fill-rule="nonzero" fill-opacity="1" /><path clip-path="url(#clip000)" d="M576.874 377.994 Q571.712 377.994 569.722 379.174 Q567.731 380.355 567.731 383.202 Q567.731 385.471 569.212 386.813 Q570.717 388.133 573.286 388.133 Q576.828 388.133 578.958 385.633 Q581.11 383.11 581.11 378.943 L581.11 377.994 L576.874 377.994 M585.37 376.235 L585.37 391.026 L581.11 391.026 L581.11 387.091 Q579.652 389.452 577.476 390.586 Q575.3 391.698 572.152 391.698 Q568.171 391.698 565.81 389.475 Q563.472 387.23 563.472 383.48 Q563.472 379.105 566.388 376.883 Q569.328 374.661 575.138 374.661 L581.11 374.661 L581.11 374.244 Q581.11 371.304 579.166 369.707 Q577.245 368.087 573.749 368.087 Q571.527 368.087 569.421 368.619 Q567.314 369.151 565.37 370.216 L565.37 366.281 Q567.708 365.378 569.907 364.938 Q572.106 364.475 574.189 364.475 Q579.814 364.475 582.592 367.392 Q585.37 370.309 585.37 376.235 Z" fill="#000000" fill-rule="nonzero" fill-opacity="1" /><path clip-path="url(#clip000)" d="M611.203 369.036 L611.203 355.008 L615.462 355.008 L615.462 391.026 L611.203 391.026 L611.203 387.137 Q609.86 389.452 607.8 390.586 Q605.763 391.698 602.893 391.698 Q598.194 391.698 595.231 387.948 Q592.291 384.198 592.291 378.087 Q592.291 371.975 595.231 368.225 Q598.194 364.475 602.893 364.475 Q605.763 364.475 607.8 365.61 Q609.86 366.721 611.203 369.036 M596.689 378.087 Q596.689 382.786 598.61 385.471 Q600.555 388.133 603.934 388.133 Q607.314 388.133 609.258 385.471 Q611.203 382.786 611.203 378.087 Q611.203 373.387 609.258 370.725 Q607.314 368.04 603.934 368.04 Q600.555 368.04 598.61 370.725 Q596.689 373.387 596.689 378.087 Z" fill="#000000" fill-rule="nonzero" fill-opacity="1" /><path clip-path="url(#clip000)" d="M639.258 369.082 Q638.541 368.665 637.684 368.48 Q636.851 368.272 635.832 368.272 Q632.221 368.272 630.277 370.633 Q628.356 372.971 628.356 377.369 L628.356 391.026 L624.073 391.026 L624.073 365.1 L628.356 365.1 L628.356 369.128 Q629.698 366.767 631.851 365.633 Q634.004 364.475 637.082 364.475 Q637.522 364.475 638.055 364.545 Q638.587 364.591 639.235 364.707 L639.258 369.082 Z" fill="#000000" fill-rule="nonzero" fill-opacity="1" /><path clip-path="url(#clip000)" d="M655.508 377.994 Q650.346 377.994 648.355 379.174 Q646.365 380.355 646.365 383.202 Q646.365 385.471 647.846 386.813 Q649.351 388.133 651.92 388.133 Q655.462 388.133 657.592 385.633 Q659.744 383.11 659.744 378.943 L659.744 377.994 L655.508 377.994 M664.004 376.235 L664.004 391.026 L659.744 391.026 L659.744 387.091 Q658.286 389.452 656.11 390.586 Q653.934 391.698 650.786 391.698 Q646.805 391.698 644.443 389.475 Q642.105 387.23 642.105 383.48 Q642.105 379.105 645.022 376.883 Q647.962 374.661 653.772 374.661 L659.744 374.661 L659.744 374.244 Q659.744 371.304 657.8 369.707 Q655.879 368.087 652.383 368.087 Q650.161 368.087 648.055 368.619 Q645.948 369.151 644.004 370.216 L644.004 366.281 Q646.342 365.378 648.541 364.938 Q650.74 364.475 652.823 364.475 Q658.448 364.475 661.226 367.392 Q664.004 370.309 664.004 376.235 Z" fill="#000000" fill-rule="nonzero" fill-opacity="1" /><path clip-path="url(#clip000)" d="M676.99 357.739 L676.99 365.1 L685.763 365.1 L685.763 368.411 L676.99 368.411 L676.99 382.485 Q676.99 385.656 677.846 386.559 Q678.726 387.461 681.388 387.461 L685.763 387.461 L685.763 391.026 L681.388 391.026 Q676.457 391.026 674.582 389.198 Q672.707 387.346 672.707 382.485 L672.707 368.411 L669.582 368.411 L669.582 365.1 L672.707 365.1 L672.707 357.739 L676.99 357.739 Z" fill="#000000" fill-rule="nonzero" fill-opacity="1" /><path clip-path="url(#clip000)" d="M691.364 365.1 L695.624 365.1 L695.624 391.026 L691.364 391.026 L691.364 365.1 M691.364 355.008 L695.624 355.008 L695.624 360.401 L691.364 360.401 L691.364 355.008 Z" fill="#000000" fill-rule="nonzero" fill-opacity="1" /><path clip-path="url(#clip000)" d="M723.193 366.096 L723.193 370.077 Q721.387 369.082 719.559 368.596 Q717.753 368.087 715.901 368.087 Q711.758 368.087 709.466 370.725 Q707.175 373.341 707.175 378.087 Q707.175 382.832 709.466 385.471 Q711.758 388.086 715.901 388.086 Q717.753 388.086 719.559 387.6 Q721.387 387.091 723.193 386.096 L723.193 390.031 Q721.411 390.864 719.489 391.281 Q717.591 391.698 715.438 391.698 Q709.582 391.698 706.133 388.017 Q702.684 384.336 702.684 378.087 Q702.684 371.744 706.156 368.11 Q709.651 364.475 715.716 364.475 Q717.684 364.475 719.559 364.892 Q721.434 365.286 723.193 366.096 Z" fill="#000000" fill-rule="nonzero" fill-opacity="1" /></svg>
